<svg width="32" height="32" viewBox="0 0 32 32" fill="none" xmlns="http://www.w3.org/2000/svg">
<path d="M24.4001 7.61328C24.151 7.3636 23.8128 7.22329 23.4601 7.22329C23.1074 7.22329 22.7692 7.3636 22.5201 7.61328L16.0001 14.1199L9.48008 7.59994C9.23097 7.35027 8.89277 7.20996 8.54008 7.20996C8.18739 7.20996 7.84918 7.35027 7.60008 7.59994C7.08008 8.11994 7.08008 8.95994 7.60008 9.47994L14.1201 15.9999L7.60008 22.5199C7.08008 23.0399 7.08008 23.8799 7.60008 24.3999C8.12008 24.9199 8.96008 24.9199 9.48008 24.3999L16.0001 17.8799L22.5201 24.3999C23.0401 24.9199 23.8801 24.9199 24.4001 24.3999C24.9201 23.8799 24.9201 23.0399 24.4001 22.5199L17.8801 15.9999L24.4001 9.47994C24.9067 8.97327 24.9067 8.11994 24.4001 7.61328Z" fill="black" fill-opacity="0.54"/>
</svg>
